<svg xmlns="http://www.w3.org/2000/svg"  viewBox="0 0 48 48" width="48px" height="48px" baseProfile="basic"><linearGradient id="isQs9Syf5JDgpDnu0HOv8a" x1="3.447" x2="44.226" y1="6.376" y2="47.155" gradientUnits="userSpaceOnUse"><stop offset="0" stop-color="#262626" stop-opacity="0"/><stop offset="1" stop-color="#262626" stop-opacity=".8"/></linearGradient><path fill="url(#isQs9Syf5JDgpDnu0HOv8a)" d="M25,38.576c0-1.82-1.166-3.486-2.921-3.97C17.427,33.324,14,29.055,14,24	s3.427-9.324,8.079-10.606C23.834,12.91,25,11.244,25,9.424V5C14.523,5,6,13.523,6,24s8.523,19,19,19V38.576z"/><linearGradient id="isQs9Syf5JDgpDnu0HOv8b" x1="9.662" x2="50.44" y1=".162" y2="40.94" gradientUnits="userSpaceOnUse"><stop offset="0" stop-color="#262626" stop-opacity="0"/><stop offset="1" stop-color="#262626" stop-opacity=".8"/></linearGradient><path fill="url(#isQs9Syf5JDgpDnu0HOv8b)" d="M34,20h-9v4c0,2.209,1.791,4,4,4h5v5c0,2.209,1.791,4,4,4h4v-9v-4c0-2.209-1.791-4-4-4H34z"/></svg>